<?xml version="1.0" encoding="utf-8"?>
<!-- Generator: Adobe Illustrator 17.0.0, SVG Export Plug-In . SVG Version: 6.00 Build 0)  -->
<!DOCTYPE svg PUBLIC "-//W3C//DTD SVG 1.1//EN" "http://www.w3.org/Graphics/SVG/1.1/DTD/svg11.dtd">
<svg version="1.1" id="Calque_1" xmlns="http://www.w3.org/2000/svg" xmlns:xlink="http://www.w3.org/1999/xlink" x="0px" y="0px"
	 width="3280px" height="2000px" viewBox="0 0 3280 2000" enable-background="new 0 0 3280 2000" xml:space="preserve">
<g>
	<g>
		<path fill="#ECF0F1" d="M1330.406,1401.883l-94.444,0.059l232.098-595.458l66.933-63.41L1768.1,1355.33l-69.723,58.083
			l-65.613-184.502h-181.865l19.613-57.669h138.419l-102.664-249.154L1330.406,1401.883z"/>
	</g>
</g>
<path fill="#ECF0F1" d="M1460,775.904V562h78.634c0,0,72.435,52.625,171.212,74.026c98.776,21.402,133.348,42.775,153.102,55.945
	c19.756,13.17,82.315,62.544,82.315,149.797c0,87.252-83.961,167.913-83.961,167.913s182.736,26.254,182.736,200.758
	S1806.955,1438,1804.666,1438h-45.265h-44.73l72.846-63.712c0,0,187.377-10.103,187.377-160.518s-204.137-176.13-204.137-176.13
	s31.42-27.17,57.62-59.256c22.357-27.383,53.663-61.358,49.388-138.281c-6.585-118.532-160.035-148.162-160.035-148.162
	S1578,660.665,1533,619.508v87.252L1460,775.904z"/>
</svg>
