<?xml version="1.0" encoding="utf-8"?>
<!-- Generator: Adobe Illustrator 17.0.0, SVG Export Plug-In . SVG Version: 6.00 Build 0)  -->
<!DOCTYPE svg PUBLIC "-//W3C//DTD SVG 1.1//EN" "http://www.w3.org/Graphics/SVG/1.1/DTD/svg11.dtd">
<svg version="1.1" id="Capa_1" xmlns="http://www.w3.org/2000/svg" xmlns:xlink="http://www.w3.org/1999/xlink" x="0px" y="0px"
	 width="1280px" height="800px" viewBox="0 0 1280 800" enable-background="new 0 0 1280 800" xml:space="preserve">
<g>
	<path fill="#52B3D9" d="M296.872,399.985c0,135.807,78.905,253.192,193.389,308.829L326.557,260.351
		C307.549,302.997,296.872,350.241,296.872,399.985z M871.637,382.642c0-42.399-15.213-71.776-28.297-94.611
		c-17.373-28.297-33.697-52.181-33.697-80.478c0-31.506,23.915-60.883,57.612-60.883c1.512,0,2.962,0.185,4.474,0.247
		C810.662,90.97,729.319,56.841,640.015,56.841c-119.884,0-225.358,61.5-286.704,154.692c8.054,0.247,15.645,0.401,22.095,0.401
		c35.888,0,91.433-4.382,91.433-4.382c18.484-1.08,20.675,26.106,2.191,28.297c0,0-18.608,2.16-39.252,3.24l124.945,371.688
		l75.109-225.203L576.386,239.09c-18.484-1.08-36.012-3.24-36.012-3.24c-18.515-1.111-16.324-29.408,2.16-28.297
		c0,0,56.656,4.382,90.353,4.382c35.888,0,91.464-4.382,91.464-4.382c18.515-1.08,20.675,26.106,2.191,28.297
		c0,0-18.638,2.16-39.252,3.24l123.988,368.849l34.253-114.361C862.935,448.987,871.637,412.05,871.637,382.642z M646.033,430.01
		L543.059,729.15c30.766,9.041,63.259,13.979,96.957,13.979c39.931,0,78.287-6.912,113.96-19.441
		c-0.895-1.481-1.759-3.055-2.469-4.721L646.033,430.01z M941.099,235.356c1.512,10.924,2.314,22.65,2.314,35.302
		c0,34.808-6.542,73.936-26.106,122.878L812.513,696.563c102.017-59.495,170.615-169.998,170.615-296.579
		C983.128,340.305,967.884,284.204,941.099,235.356z"/>
	<g>
		<path fill="#52B3D9" d="M240,399.985C240,620.528,419.441,800,639.985,800C860.59,800,1040,620.528,1040,399.985
			S860.59,0,640.015,0S240,179.41,240,399.985z M258.33,399.985c0-210.422,171.202-381.655,381.655-381.655
			s381.686,171.232,381.686,381.655S850.438,781.639,640.015,781.639S258.33,610.407,258.33,399.985z"/>
	</g>
</g>
</svg>
